# xmcd
#
# Track frame offsets: 
#        150
#        10490
#        20911
#        36768
#        48044
#        60683
#        73192
#        80132
#        95704
#        107895
#        138195
#        149974
#        185950
#        199138
#        214374
#        242210
#
# Disc length: 3386 seconds
#
# Revision: 4
# Processed by: cddbd v1.5.2PL0 Copyright (c) Steve Scherf et al.
# Submitted via: ExactAudioCopy v1.3
#
DISCID=070d3810
DTITLE=Dave Brubeck - Jazz masters, Disc 3
DYEAR=2007
DGENRE=Jazz
TTITLE0=I hear a rhapsody
TTITLE1=Perfidia
TTITLE2=Lullaby in rhythm
TTITLE3=Undecided
TTITLE4=Always
TTITLE5=How high the Moon
TTITLE6=Rondo
TTITLE7=September song
TTITLE8=Ipca
TTITLE9=Tea for two
TTITLE10=Singin' in the rain
TTITLE11=Blue Moon
TTITLE12=You stepped out of a dream
TTITLE13=I'll remember April
TTITLE14=Stardust
TTITLE15=Love walked in
EXTD=
EXTT0=
EXTT1=
EXTT2=
EXTT3=
EXTT4=
EXTT5=
EXTT6=
EXTT7=
EXTT8=
EXTT9=
EXTT10=
EXTT11=
EXTT12=
EXTT13=
EXTT14=
EXTT15=
PLAYORDER=
